<?xml version="1.0" encoding="UTF-8"?>
<svg id="_лой_1" data-name=" лой 1" xmlns="http://www.w3.org/2000/svg" xmlns:xlink="http://www.w3.org/1999/xlink" viewBox="0 0 75.42 100.41">
  <defs>
    <style>
      .cls-1 {
        fill: #5fc456;
      }

      .cls-2 {
        fill: url(#_езымянный_градиент_3);
      }

      .cls-3 {
        fill: url(#_езымянный_градиент_6);
      }

      .cls-4 {
        fill: url(#_езымянный_градиент_4);
      }

      .cls-5 {
        fill: url(#_езымянный_градиент);
      }

      .cls-6 {
        fill: url(#_езымянный_градиент_5);
      }

      .cls-7 {
        fill: url(#_езымянный_градиент_2);
      }

      .cls-8 {
        fill: url(#_езымянный_градиент_7);
      }
    </style>
    <linearGradient id="_езымянный_градиент" data-name="Безымянный градиент" x1="47.14" y1="80.39" x2="53.14" y2="80.39" gradientTransform="translate(0 102) scale(1 -1)" gradientUnits="userSpaceOnUse">
      <stop offset="0" stop-color="#62cccc"/>
      <stop offset="1" stop-color="#5fc456"/>
    </linearGradient>
    <linearGradient id="_езымянный_градиент_2" data-name="Безымянный градиент 2" x1="12.58" y1="80.4" x2="18.58" y2="80.4" gradientTransform="translate(0 102) scale(1 -1)" gradientUnits="userSpaceOnUse">
      <stop offset="0" stop-color="#62cccc"/>
      <stop offset="1" stop-color="#5fc456"/>
    </linearGradient>
    <linearGradient id="_езымянный_градиент_3" data-name="Безымянный градиент 3" x1="0" y1="40.21" x2="75.42" y2="40.21" gradientTransform="translate(0 102) scale(1 -1)" gradientUnits="userSpaceOnUse">
      <stop offset="0" stop-color="#62cccc"/>
      <stop offset="1" stop-color="#5fc456"/>
    </linearGradient>
    <linearGradient id="_езымянный_градиент_4" data-name="Безымянный градиент 4" x1="37.78" y1="39.41" x2="59.62" y2="39.41" gradientTransform="translate(0 102) scale(1 -1)" gradientUnits="userSpaceOnUse">
      <stop offset="0" stop-color="#62cccc"/>
      <stop offset="1" stop-color="#5fc456"/>
    </linearGradient>
    <linearGradient id="_езымянный_градиент_5" data-name="Безымянный градиент 5" x1="21.93" y1="42.84" x2="27.86" y2="42.84" gradientTransform="matrix(1, 0, 0, 1, 0, 0)" gradientUnits="userSpaceOnUse">
      <stop offset="0" stop-color="#62cccc"/>
      <stop offset="1" stop-color="#5fc456"/>
    </linearGradient>
    <linearGradient id="_езымянный_градиент_6" data-name="Безымянный градиент 6" x1="1.78" y1="91.53" x2="63.75" y2="91.53" gradientTransform="translate(0 102) scale(1 -1)" gradientUnits="userSpaceOnUse">
      <stop offset="0" stop-color="#62cccc"/>
      <stop offset="1" stop-color="#5fc456"/>
    </linearGradient>
    <linearGradient id="_езымянный_градиент_7" data-name="Безымянный градиент 7" x1="62.13" y1="81.06" x2="64.13" y2="81.06" gradientTransform="translate(0 102) scale(1 -1)" gradientUnits="userSpaceOnUse">
      <stop offset="0" stop-color="#62cccc"/>
      <stop offset="1" stop-color="#5fc456"/>
    </linearGradient>
  </defs>
  <polygon class="cls-5" points="50.14 25 47.14 18.23 53.14 18.22 50.14 25"/>
  <polygon class="cls-7" points="15.58 24.99 12.58 18.22 18.58 18.21 15.58 24.99"/>
  <g>
    <path class="cls-2" d="M23.95,60.09c-5.34,0-10,.12-14.65-.03-4.83-.16-8.3-3.12-9.15-7.76-.26-1.42-.18-3.02,.2-4.42,3.71-13.83,15.32-23.5,29.55-24.64,6.82-.55,11.99,2.15,15.79,7.92,.96,1.47,2.77,2.77,4.46,3.29,14.36,4.44,25.99,15.3,25.23,32.74-.33,7.56,.87,15.27-3.08,22.36-6,10.76-21.96,15.14-29.9,5.62-3.65-4.37-5.28-9.35-2.81-14.95,2.07-4.69,5.93-7.11,10.86-7.25,5.25-.15,9.18,2.41,11.77,7.28-4.29-1.19-5.15-1.6-8.55-2.27-1.63-.32-3.79-.07-6.2,1.49s-3.55,4.27-2.98,7.27c.85,4.56,4.62,7.65,9.28,7.71,7.4,.11,14.34-5.33,15.03-12.91,.65-7.04,.71-14.26-.06-21.28-1.02-9.36-11.43-18.56-20.81-19.59-1.31,2.75-2.45,5.16-3.79,7.97-1.85-4-2.4-5.11-2.77-6.2-2.28-6.78-1.93-12.66-9.03-13.19-11.28-.85-24.27,9.08-26.4,20.21-.55,2.89,.66,4.68,3.64,4.78,3.97,.12,7.96-.05,11.94,.03,7.03,.15,9.77,4.7,6.72,11.1-.8,1.68-1.68,3.31-2.73,5.37"/>
    <path class="cls-4" d="M41.84,70.84c-1.37-2.93-2.89-5.47-3.77-8.22-1.22-3.82,1.55-7.93,5.82-8.25,3.11-.23,5.85,.83,9.5,2.53l6.23,3.35h-16.21"/>
    <circle class="cls-6" cx="24.9" cy="42.84" r="2.97"/>
  </g>
  <path class="cls-3" d="M24.56,20.94c-1.49-.14-2.97-.32-4.42-.55-1.46-.2-2.91-.44-4.35-.7l-2.15-.4c-.72-.12-1.27-.62-1.93-.88l-3.88-1.75L1.78,13.92l6.04-2.73L31.36,.55l1.21-.55,1.22,.52,23.73,10.22,6.23,2.68-6.17,2.8-3.94,1.79c-.33,.15-.66,.29-.97,.48-.31,.19-.63,.36-.99,.43l-2.2,.4c-2.92,.54-5.89,1-8.9,1.34,2.24-2.05,4.53-3.98,6.86-5.83l1.74-1.39c.29-.23,.63-.35,.98-.46s.67-.27,1-.42l3.94-1.79,.05,5.49L31.41,6.03l2.42-.02L10.3,16.66v-5.47l3.88,1.75c.63,.33,1.37,.41,1.94,.87l1.72,1.35c1.14,.91,2.28,1.84,3.4,2.81,1.13,.95,2.24,1.93,3.33,2.96h-.01Z"/>
  <path class="cls-8" d="M63.13,14.48c.42,1.08,.62,2.15,.78,3.23,.15,1.08,.21,2.15,.22,3.23,0,1.08-.07,2.15-.21,3.23-.16,1.08-.37,2.15-.79,3.23-.42-1.08-.63-2.15-.79-3.23-.15-1.08-.21-2.15-.21-3.23s.07-2.15,.22-3.23c.16-1.08,.37-2.15,.78-3.23Z"/>
  <path class="cls-1" d="M61.69,32.51l1.44,1.44,1.44-1.44c.96-.96,.96-2.51,0-3.47l-1.44-1.44-1.44,1.44c-.96,.96-.96,2.51,0,3.47Z"/>
</svg>