<svg id="visual" viewBox="0 0 900 450" width="900" height="450" xmlns="http://www.w3.org/2000/svg" xmlns:xlink="http://www.w3.org/1999/xlink" version="1.1"><path d="M0 290L15 291.7C30 293.3 60 296.7 90 297.7C120 298.7 150 297.3 180 298.3C210 299.3 240 302.7 270 304.5C300 306.3 330 306.7 360 304.5C390 302.3 420 297.7 450 294C480 290.3 510 287.7 540 287.3C570 287 600 289 630 290C660 291 690 291 720 291C750 291 780 291 810 291C840 291 870 291 885 291L900 291L900 451L885 451C870 451 840 451 810 451C780 451 750 451 720 451C690 451 660 451 630 451C600 451 570 451 540 451C510 451 480 451 450 451C420 451 390 451 360 451C330 451 300 451 270 451C240 451 210 451 180 451C150 451 120 451 90 451C60 451 30 451 15 451L0 451Z" fill="#2de09a"></path><path d="M0 343L15 343C30 343 60 343 90 341.7C120 340.3 150 337.7 180 335.7C210 333.7 240 332.3 270 330.2C300 328 330 325 360 326.5C390 328 420 334 450 333.7C480 333.3 510 326.7 540 326.8C570 327 600 334 630 334.3C660 334.7 690 328.3 720 329C750 329.7 780 337.3 810 338.5C840 339.7 870 334.3 885 331.7L900 329L900 451L885 451C870 451 840 451 810 451C780 451 750 451 720 451C690 451 660 451 630 451C600 451 570 451 540 451C510 451 480 451 450 451C420 451 390 451 360 451C330 451 300 451 270 451C240 451 210 451 180 451C150 451 120 451 90 451C60 451 30 451 15 451L0 451Z" fill="#00b38f"></path><path d="M0 362L15 364.5C30 367 60 372 90 373.5C120 375 150 373 180 372.7C210 372.3 240 373.7 270 374.7C300 375.7 330 376.3 360 373.5C390 370.7 420 364.3 450 363.3C480 362.3 510 366.7 540 369.8C570 373 600 375 630 374.7C660 374.3 690 371.7 720 368.8C750 366 780 363 810 363.5C840 364 870 368 885 370L900 372L900 451L885 451C870 451 840 451 810 451C780 451 750 451 720 451C690 451 660 451 630 451C600 451 570 451 540 451C510 451 480 451 450 451C420 451 390 451 360 451C330 451 300 451 270 451C240 451 210 451 180 451C150 451 120 451 90 451C60 451 30 451 15 451L0 451Z" fill="#0c877a"></path><path d="M0 405L15 405.3C30 405.7 60 406.3 90 407.3C120 408.3 150 409.7 180 410C210 410.3 240 409.7 270 408.5C300 407.3 330 405.7 360 406.2C390 406.7 420 409.3 450 409.3C480 409.3 510 406.7 540 406.8C570 407 600 410 630 410C660 410 690 407 720 406C750 405 780 406 810 406.7C840 407.3 870 407.7 885 407.8L900 408L900 451L885 451C870 451 840 451 810 451C780 451 750 451 720 451C690 451 660 451 630 451C600 451 570 451 540 451C510 451 480 451 450 451C420 451 390 451 360 451C330 451 300 451 270 451C240 451 210 451 180 451C150 451 120 451 90 451C60 451 30 451 15 451L0 451Z" fill="#225c5b"></path></svg>