
<svg id="visual" viewBox="0 0 900 450" width="900" height="450" xmlns="http://www.w3.org/2000/svg" xmlns:xlink="http://www.w3.org/1999/xlink" version="1.1"><path d="M0 216L30 218.3C60 220.7 120 225.3 180 229.7C240 234 300 238 360 236.8C420 235.7 480 229.3 540 224C600 218.7 660 214.3 720 211.7C780 209 840 208 870 207.5L900 207L900 451L870 451C840 451 780 451 720 451C660 451 600 451 540 451C480 451 420 451 360 451C300 451 240 451 180 451C120 451 60 451 30 451L0 451Z" fill="#2de09a"></path><path d="M0 264L30 262.3C60 260.7 120 257.3 180 260C240 262.7 300 271.3 360 273.3C420 275.3 480 270.7 540 269C600 267.3 660 268.7 720 268.8C780 269 840 268 870 267.5L900 267L900 451L870 451C840 451 780 451 720 451C660 451 600 451 540 451C480 451 420 451 360 451C300 451 240 451 180 451C120 451 60 451 30 451L0 451Z" fill="#00b38f"></path><path d="M0 304L30 305C60 306 120 308 180 312.5C240 317 300 324 360 327C420 330 480 329 540 325.8C600 322.7 660 317.3 720 316C780 314.7 840 317.3 870 318.7L900 320L900 451L870 451C840 451 780 451 720 451C660 451 600 451 540 451C480 451 420 451 360 451C300 451 240 451 180 451C120 451 60 451 30 451L0 451Z" fill="#00877a"></path><path d="M0 364L30 360.3C60 356.7 120 349.3 180 351C240 352.7 300 363.3 360 363.8C420 364.3 480 354.7 540 353.7C600 352.7 660 360.3 720 362.2C780 364 840 360 870 358L900 356L900 451L870 451C840 451 780 451 720 451C660 451 600 451 540 451C480 451 420 451 360 451C300 451 240 451 180 451C120 451 60 451 30 451L0 451Z" fill="#225c5b"></path><path d="M0 405L30 405C60 405 120 405 180 405.3C240 405.7 300 406.3 360 405.7C420 405 480 403 540 401.8C600 400.7 660 400.3 720 402.2C780 404 840 408 870 410L900 412L900 451L870 451C840 451 780 451 720 451C660 451 600 451 540 451C480 451 420 451 360 451C300 451 240 451 180 451C120 451 60 451 30 451L0 451Z" fill="#293435"></path></svg>

